<?xml version="1.0" encoding="UTF-8" standalone="no"?>
<!DOCTYPE svg PUBLIC "-//W3C//DTD SVG 1.1//EN" "http://www.w3.org/Graphics/SVG/1.1/DTD/svg11.dtd">
<!-- Created with Vectornator (http://vectornator.io/) -->
<svg height="100%" stroke-miterlimit="10" style="fill-rule:nonzero;clip-rule:evenodd;stroke-linecap:round;stroke-linejoin:round;" version="1.1" viewBox="0 0 500 500" width="100%" xml:space="preserve" xmlns="http://www.w3.org/2000/svg" xmlns:vectornator="http://vectornator.io" xmlns:xlink="http://www.w3.org/1999/xlink">
<defs/>
<g id="Capa-1" vectornator:layerName="Capa 1">
<path d="M210.067 119.642C197.911 122.571 186.47 127.148 175.744 133.372C165.018 139.596 155.365 147.102 146.784 155.889C138.203 164.676 131.231 174.013 125.869 183.898C123.187 188.841 120.506 193.784 117.824 198.726C118.897 198.543 119.969 198.36 121.042 198.177C123.187 197.811 124.617 196.346 125.332 193.784C126.047 191.221 128.55 186.644 132.84 180.054C137.131 173.463 143.566 165.958 152.147 157.537C160.728 149.116 170.917 141.793 182.716 135.569C194.514 129.345 205.598 125.134 215.966 122.937C226.334 120.741 238.312 120.191 251.898 121.29C265.484 122.388 278.355 125.5 290.511 130.626C302.667 135.752 311.784 140.512 317.862 144.905C323.94 149.299 329.482 154.058 334.487 159.184C339.493 164.31 344.141 169.985 348.431 176.209C352.721 182.434 355.76 187.742 357.548 192.136C359.336 196.53 361.123 198.726 362.911 198.726C363.805 198.726 364.699 198.726 365.592 198.726C363.983 195.248 362.375 191.77 360.766 188.292C357.548 181.335 353.258 174.379 347.895 167.422C342.532 160.466 334.487 152.777 323.761 144.356C313.035 135.935 302.131 129.528 291.047 125.134C279.964 120.741 271.383 117.995 265.305 116.896C259.227 115.798 251.54 115.249 242.245 115.249C232.949 115.249 222.223 116.713 210.067 119.642Z" fill="#ffffff" fill-rule="nonzero" opacity="1" stroke="none"/>
<path d="M214.893 131.725C202.38 134.654 191.118 139.047 181.107 144.905C171.096 150.763 162.158 157.903 154.292 166.324C146.427 174.745 140.527 182.983 136.594 191.038C134.628 195.065 132.662 199.092 130.695 203.12C131.589 202.937 132.483 202.754 133.377 202.571C135.164 202.205 136.952 199.825 138.74 195.431C140.527 191.038 143.924 185.546 148.929 178.955C153.935 172.365 160.728 165.592 169.308 158.635C177.889 151.679 186.827 146.187 196.123 142.159C205.419 138.132 215.251 135.386 225.619 133.921C235.988 132.457 246.535 132.457 257.261 133.921C267.987 135.386 278.355 138.315 288.366 142.708C298.377 147.102 307.851 153.143 316.79 160.832C325.728 168.521 331.985 174.745 335.56 179.504C339.135 184.264 342.174 189.39 344.677 194.882C347.18 200.374 349.325 203.12 351.112 203.12C352.006 203.12 352.9 203.12 353.794 203.12C352.543 200.374 351.291 197.628 350.04 194.882C347.537 189.39 343.962 183.532 339.314 177.308C334.666 171.084 327.515 163.944 317.862 155.889C308.209 147.834 298.019 141.61 287.293 137.216C276.567 132.823 264.948 130.077 252.434 128.979C239.921 127.88 227.407 128.796 214.893 131.725Z" fill="#ffffff" fill-rule="nonzero" opacity="1" stroke="none"/>
<path d="M227.228 141.061C226.513 141.427 226.334 143.807 226.692 148.2C227.05 152.594 227.943 154.791 229.373 154.791C230.089 154.791 230.804 154.791 231.519 154.791C231.34 153.692 231.161 152.594 230.982 151.496C230.804 150.397 230.625 149.299 230.446 148.2C231.161 149.116 231.876 150.031 232.591 150.946C234.021 152.777 235.451 153.692 236.882 153.692C237.597 153.692 238.312 153.692 239.027 153.692C238.848 151.496 238.669 149.299 238.49 147.102C238.133 142.708 237.418 140.512 236.345 140.512C235.809 140.512 235.273 140.512 234.736 140.512C234.736 141.427 234.736 142.342 234.736 143.258C234.736 144.173 234.736 145.088 234.736 146.004C233.664 145.088 232.591 144.173 231.519 143.258C229.373 141.427 227.943 140.695 227.228 141.061Z" fill="#ffffff" fill-rule="nonzero" opacity="1" stroke="none"/>
<path d="M251.362 148.2C251.183 150.397 251.004 152.594 250.825 154.791C251.362 154.791 251.898 154.791 252.434 154.791C253.507 154.791 254.222 154.058 254.579 152.594C254.937 151.129 255.831 150.214 257.261 149.848C258.691 149.482 259.406 148.933 259.406 148.2C259.406 147.468 258.691 146.919 257.261 146.553C256.546 146.37 255.831 146.187 255.116 146.004C256.009 146.004 256.903 146.004 257.797 146.004C258.691 146.004 259.585 146.004 260.479 146.004C260.479 145.454 260.479 144.905 260.479 144.356C260.479 143.258 259.048 142.525 256.188 142.159C254.758 141.976 253.328 141.793 251.898 141.61C251.719 143.807 251.54 146.004 251.362 148.2Z" fill="#ffffff" fill-rule="nonzero" opacity="1" stroke="none"/>
<path d="M218.111 148.2C218.469 151.862 219.541 154.058 221.329 154.791C222.223 155.157 223.117 155.523 224.01 155.889C223.653 153.692 223.295 151.496 222.938 149.299C222.223 144.905 221.15 142.708 219.72 142.708C219.005 142.708 218.29 142.708 217.575 142.708C217.754 144.539 217.932 146.37 218.111 148.2Z" fill="#ffffff" fill-rule="nonzero" opacity="1" stroke="none"/>
<path d="M209.531 144.356C208.994 144.539 208.458 144.722 207.922 144.905C208.458 146.553 208.994 148.2 209.531 149.848C210.067 151.496 210.603 153.143 211.139 154.791C210.603 154.791 210.067 154.791 209.531 154.791C208.458 154.791 207.564 153.509 206.849 150.946C206.134 148.383 205.061 147.102 203.631 147.102C202.916 147.102 202.201 147.102 201.486 147.102C202.201 149.116 202.916 151.129 203.631 153.143C205.061 157.171 207.207 158.818 210.067 158.086C212.927 157.354 214.357 155.706 214.357 153.143C214.357 150.58 213.821 148.383 212.748 146.553C211.676 144.722 210.603 143.99 209.531 144.356Z" fill="#ffffff" fill-rule="nonzero" opacity="1" stroke="none"/>
<path d="M263.696 150.397C262.981 152.594 262.266 154.791 261.551 156.988C262.266 157.171 262.981 157.354 263.696 157.537C265.126 157.903 266.02 157.72 266.378 156.988C266.557 156.621 266.735 156.255 266.914 155.889C267.093 156.438 267.272 156.988 267.45 157.537C267.808 158.635 268.702 159.184 270.132 159.184C270.847 159.184 271.562 159.184 272.277 159.184C272.098 158.269 271.92 157.354 271.741 156.438C271.383 154.608 271.741 153.509 272.813 153.143C273.886 152.777 274.422 151.679 274.422 149.848C274.422 148.017 272.992 146.553 270.132 145.454C268.702 144.905 267.272 144.356 265.842 143.807C265.126 146.004 264.411 148.2 263.696 150.397Z" fill="#ffffff" fill-rule="nonzero" opacity="1" stroke="none"/>
<path d="M278.713 155.889C277.282 157.72 275.852 159.55 274.422 161.381C274.959 161.564 275.495 161.747 276.031 161.93C277.104 162.296 277.998 162.113 278.713 161.381C279.07 161.015 279.428 160.649 279.785 160.283C280.321 161.198 280.858 162.113 281.394 163.029C282.467 164.859 283.539 165.775 284.612 165.775C285.684 165.775 286.399 163.395 286.757 158.635C287.115 153.875 286.578 151.312 285.148 150.946C283.718 150.58 281.573 152.228 278.713 155.889Z" fill="#ffffff" fill-rule="nonzero" opacity="1" stroke="none"/>
<path d="M190.224 153.143C188.436 154.242 187.542 156.072 187.542 158.635C187.542 161.198 188.079 163.029 189.151 164.127C190.224 165.225 192.727 165.592 196.659 165.225C200.592 164.859 202.737 164.31 203.095 163.578C203.274 163.212 203.453 162.846 203.631 162.479C203.095 162.296 202.559 162.113 202.022 161.93C200.95 161.564 200.235 160.1 199.877 157.537C199.52 154.974 198.268 153.326 196.123 152.594C193.978 151.862 192.012 152.045 190.224 153.143Z" fill="#ffffff" fill-rule="nonzero" opacity="1" stroke="none"/>
<path d="M292.12 160.283C290.332 162.479 289.26 164.493 288.902 166.324C288.723 167.239 288.545 168.154 288.366 169.07C288.902 169.07 289.438 169.07 289.975 169.07C291.047 169.07 292.12 168.338 293.193 166.873C293.729 166.141 294.265 165.408 294.801 164.676C294.801 166.141 294.801 167.605 294.801 169.07C294.801 171.999 295.338 173.646 296.41 174.013C297.483 174.379 299.092 172.548 301.237 168.521C302.31 166.507 303.382 164.493 304.455 162.479C303.918 162.296 303.382 162.113 302.846 161.93C301.773 161.564 300.701 162.113 299.628 163.578C299.092 164.31 298.555 165.042 298.019 165.775C298.019 164.493 298.019 163.212 298.019 161.93C298.019 159.367 297.483 157.903 296.41 157.537C295.338 157.171 293.908 158.086 292.12 160.283Z" fill="#ffffff" fill-rule="nonzero" opacity="1" stroke="none"/>
<path d="M175.744 163.578C175.029 165.042 175.208 167.422 176.28 170.717C177.353 174.013 178.425 175.843 179.498 176.209C180.034 176.392 180.571 176.575 181.107 176.759C181.286 176.026 181.464 175.294 181.643 174.562C182.001 173.097 182.537 171.999 183.252 171.267C183.967 170.534 184.861 170.351 185.934 170.717C187.006 171.084 187.9 170.717 188.615 169.619C188.973 169.07 189.33 168.521 189.688 167.971C187.542 166.873 185.397 165.775 183.252 164.676C181.107 163.578 178.962 162.479 176.817 161.381C176.459 162.113 176.101 162.846 175.744 163.578Z" fill="#ffffff" fill-rule="nonzero" opacity="1" stroke="none"/>
<path d="M304.991 170.717C303.203 171.816 302.31 173.646 302.31 176.209C302.31 178.772 302.846 180.603 303.918 181.701C304.991 182.8 306.6 183.349 308.745 183.349C309.818 183.349 310.89 183.349 311.963 183.349C310.89 182.067 309.818 180.786 308.745 179.504C307.673 178.223 306.6 176.942 305.527 175.66C306.242 175.294 306.957 174.928 307.673 174.562C309.103 173.829 310.712 174.379 312.499 176.209C313.393 177.125 314.287 178.04 315.181 178.955C315.181 177.857 315.181 176.759 315.181 175.66C315.181 173.463 313.929 171.816 311.427 170.717C308.924 169.619 306.779 169.619 304.991 170.717Z" fill="#ffffff" fill-rule="nonzero" opacity="1" stroke="none"/>
<path d="M164.482 173.463C162.694 174.928 161.8 176.575 161.8 178.406C161.8 180.237 162.515 181.884 163.945 183.349C165.376 184.813 166.984 185.546 168.772 185.546C170.56 185.546 171.99 185.18 173.062 184.447C174.135 183.715 174.85 182.25 175.208 180.054C175.565 177.857 175.208 176.026 174.135 174.562C173.062 173.097 171.632 172.182 169.845 171.816C168.057 171.45 166.269 171.999 164.482 173.463Z" fill="#ffffff" fill-rule="nonzero" opacity="1" stroke="none"/>
<path d="M314.108 185.546C312.678 187.742 312.142 189.573 312.499 191.038C312.857 192.502 314.466 193.784 317.326 194.882C320.186 195.98 322.331 195.797 323.761 194.333C325.191 192.868 325.907 191.038 325.907 188.841C325.907 186.644 325.191 184.996 323.761 183.898C322.331 182.8 320.722 182.25 318.935 182.25C317.147 182.25 315.538 183.349 314.108 185.546Z" fill="#ffffff" fill-rule="nonzero" opacity="1" stroke="none"/>
<path d="M154.828 185.546C154.471 187.01 155.544 188.475 158.046 189.939C159.298 190.671 160.549 191.404 161.8 192.136C161.264 192.868 160.728 193.6 160.191 194.333C159.655 195.065 159.119 195.797 158.583 196.53C159.476 196.53 160.37 196.53 161.264 196.53C163.052 196.53 164.124 195.248 164.482 192.685C164.839 190.122 163.409 187.925 160.191 186.095C158.583 185.18 156.974 184.264 155.365 183.349C155.186 184.081 155.007 184.813 154.828 185.546Z" fill="#ffffff" fill-rule="nonzero" opacity="1" stroke="none"/>
<path d="M95.2997 213.555C95.2997 214.104 95.2997 214.653 95.2997 215.202C143.745 215.019 192.19 214.836 240.636 214.653C289.081 214.47 337.526 214.287 385.972 214.104C385.793 213.738 385.614 213.372 385.435 213.005C385.078 212.273 336.632 211.907 240.099 211.907C191.833 211.907 143.566 211.907 95.2997 211.907C95.2997 212.456 95.2997 213.005 95.2997 213.555Z" fill="#ffffff" fill-rule="nonzero" opacity="1" stroke="none"/>
<path d="M150.538 231.678C148.035 233.875 146.784 240.831 146.784 252.547C146.784 264.264 147.857 271.22 150.002 273.417C152.147 275.614 154.471 276.712 156.974 276.712C159.476 276.712 161.8 275.431 163.945 272.868C166.091 270.305 167.163 263.531 167.163 252.547C167.163 241.564 166.448 234.973 165.018 232.776C163.588 230.58 161.443 229.298 158.583 228.932C155.722 228.566 153.041 229.481 150.538 231.678Z" fill="#ffffff" fill-rule="nonzero" opacity="1" stroke="none"/>
<path d="M206.849 231.678C204.704 233.875 203.631 240.831 203.631 252.547C203.631 264.264 204.704 271.22 206.849 273.417C208.994 275.614 211.318 276.712 213.821 276.712C216.324 276.712 218.469 275.797 220.256 273.966C222.044 272.135 223.117 268.657 223.474 263.531C223.653 260.968 223.832 258.405 224.01 255.843C222.759 255.843 221.508 255.843 220.256 255.843C217.754 255.843 216.324 258.039 215.966 262.433C215.787 264.63 215.609 266.826 215.43 269.023C214.715 268.84 214 268.657 213.285 268.474C211.854 268.108 211.139 262.799 211.139 252.547C211.139 242.296 211.854 236.987 213.285 236.621C214 236.438 214.715 236.255 215.43 236.072C215.609 238.085 215.787 240.099 215.966 242.113C216.324 246.14 217.754 248.154 220.256 248.154C221.508 248.154 222.759 248.154 224.01 248.154C224.01 246.506 224.01 244.859 224.01 243.211C224.01 239.916 223.295 236.804 221.865 233.875C220.435 230.946 218.111 229.298 214.893 228.932C211.676 228.566 208.994 229.481 206.849 231.678Z" fill="#ffffff" fill-rule="nonzero" opacity="1" stroke="none"/>
<path d="M234.736 231.678C232.591 233.875 231.519 240.831 231.519 252.547C231.519 264.264 232.591 271.22 234.736 273.417C236.882 275.614 239.206 276.712 241.708 276.712C244.211 276.712 246.356 275.797 248.144 273.966C249.931 272.135 251.004 268.657 251.362 263.531C251.54 260.968 251.719 258.405 251.898 255.843C250.646 255.843 249.395 255.843 248.144 255.843C245.641 255.843 244.211 258.039 243.853 262.433C243.675 264.63 243.496 266.826 243.317 269.023C242.602 268.84 241.887 268.657 241.172 268.474C239.742 268.108 239.027 262.799 239.027 252.547C239.027 242.296 239.742 236.987 241.172 236.621C241.887 236.438 242.602 236.255 243.317 236.072C243.496 238.085 243.675 240.099 243.853 242.113C244.211 246.14 245.641 248.154 248.144 248.154C249.395 248.154 250.646 248.154 251.898 248.154C251.898 246.506 251.898 244.859 251.898 243.211C251.898 239.916 251.183 236.804 249.753 233.875C248.323 230.946 245.999 229.298 242.781 228.932C239.563 228.566 236.882 229.481 234.736 231.678Z" fill="#ffffff" fill-rule="nonzero" opacity="1" stroke="none"/>
<path d="M262.624 231.129C260.479 232.959 259.227 239.184 258.87 249.801C258.512 260.419 259.048 267.376 260.479 270.671C261.909 273.966 264.411 275.797 267.987 276.163C271.562 276.529 274.422 275.247 276.567 272.318C278.713 269.389 279.785 262.799 279.785 252.547C279.785 242.296 279.07 235.888 277.64 233.326C276.21 230.763 273.886 229.298 270.668 228.932C267.45 228.566 264.769 229.298 262.624 231.129Z" fill="#ffffff" fill-rule="nonzero" opacity="1" stroke="none"/>
<path d="M130.695 248.703C130.695 255.11 130.695 261.518 130.695 267.925C129.98 267.925 129.265 267.925 128.55 267.925C127.835 267.925 127.12 267.925 126.405 267.925C126.405 266.094 126.405 264.264 126.405 262.433C126.405 260.602 126.405 258.772 126.405 256.941C125.153 256.941 123.902 256.941 122.651 256.941C121.399 256.941 120.148 256.941 118.897 256.941C118.897 259.138 118.897 261.335 118.897 263.531C118.897 267.925 119.969 271.22 122.114 273.417C124.26 275.614 126.405 276.712 128.55 276.712C130.695 276.712 132.84 275.614 134.986 273.417C137.131 271.22 138.203 263.348 138.203 249.801C138.203 243.028 138.203 236.255 138.203 229.481C136.952 229.481 135.701 229.481 134.449 229.481C133.198 229.481 131.947 229.481 130.695 229.481C130.695 235.888 130.695 242.296 130.695 248.703Z" fill="#ffffff" fill-rule="nonzero" opacity="1" stroke="none"/>
<path d="M176.817 252.547C175.744 260.236 174.671 267.925 173.599 275.614C174.85 275.614 176.101 275.614 177.353 275.614C179.856 275.614 181.286 274.332 181.643 271.769C182.001 269.206 183.252 267.925 185.397 267.925C187.542 267.925 188.794 269.206 189.151 271.769C189.509 274.332 190.939 275.614 193.442 275.614C194.693 275.614 195.944 275.614 197.196 275.614C196.123 268.108 195.051 260.602 193.978 253.097C191.833 238.085 188.973 230.397 185.397 230.03C181.822 229.664 178.962 237.17 176.817 252.547Z" fill="#ffffff" fill-rule="nonzero" opacity="1" stroke="none"/>
<path d="M288.366 252.547C288.366 260.236 288.366 267.925 288.366 275.614C290.869 275.614 293.371 275.614 295.874 275.614C300.879 275.614 304.276 274.149 306.064 271.22C307.851 268.291 308.745 261.884 308.745 251.998C308.745 242.113 307.851 235.888 306.064 233.326C304.276 230.763 300.879 229.481 295.874 229.481C293.371 229.481 290.869 229.481 288.366 229.481C288.366 237.17 288.366 244.859 288.366 252.547Z" fill="#ffffff" fill-rule="nonzero" opacity="1" stroke="none"/>
<path d="M317.326 252.547C317.326 260.236 317.326 267.925 317.326 275.614C320.007 275.614 322.689 275.614 325.37 275.614C328.052 275.614 330.733 275.614 333.415 275.614C333.415 274.515 333.415 273.417 333.415 272.318C333.415 271.22 333.415 270.122 333.415 269.023C331.985 269.023 330.554 269.023 329.124 269.023C327.694 269.023 326.264 269.023 324.834 269.023C324.834 266.826 324.834 264.63 324.834 262.433C324.834 260.236 324.834 258.039 324.834 255.843C326.085 255.843 327.337 255.843 328.588 255.843C329.839 255.843 331.091 255.843 332.342 255.843C332.342 254.561 332.342 253.28 332.342 251.998C332.342 250.717 332.342 249.435 332.342 248.154C331.091 248.154 329.839 248.154 328.588 248.154C327.337 248.154 326.085 248.154 324.834 248.154C324.834 246.14 324.834 244.126 324.834 242.113C324.834 240.099 324.834 238.085 324.834 236.072C326.264 236.072 327.694 236.072 329.124 236.072C330.554 236.072 331.985 236.072 333.415 236.072C333.415 234.973 333.415 233.875 333.415 232.776C333.415 231.678 333.415 230.58 333.415 229.481C330.733 229.481 328.052 229.481 325.37 229.481C322.689 229.481 320.007 229.481 317.326 229.481C317.326 237.17 317.326 244.859 317.326 252.547Z" fill="#ffffff" fill-rule="nonzero" opacity="1" stroke="none"/>
<path d="M341.995 252.547C344.141 267.925 347.001 275.614 350.576 275.614C354.151 275.614 356.833 267.925 358.621 252.547C359.514 244.859 360.408 237.17 361.302 229.481C360.051 229.481 358.799 229.481 357.548 229.481C355.045 229.481 353.436 234.058 352.721 243.211C352.364 247.788 352.006 252.364 351.649 256.941C351.291 256.758 350.934 256.575 350.576 256.392C349.861 256.026 348.967 251.449 347.895 242.662C346.822 233.875 345.034 229.481 342.532 229.481C341.28 229.481 340.029 229.481 338.778 229.481C339.85 237.17 340.923 244.859 341.995 252.547Z" fill="#ffffff" fill-rule="nonzero" opacity="1" stroke="none"/>
<path d="M154.828 251.998C154.471 262.616 155.007 268.108 156.437 268.474C157.152 268.657 157.867 268.84 158.583 269.023C158.761 263.897 158.94 258.772 159.119 253.646C159.476 243.394 158.94 237.902 157.51 237.17C156.795 236.804 156.08 236.438 155.365 236.072C155.186 241.38 155.007 246.689 154.828 251.998Z" fill="#ffffff" fill-rule="nonzero" opacity="1" stroke="none"/>
<path d="M267.45 251.998C267.093 262.616 267.629 268.108 269.059 268.474C269.774 268.657 270.489 268.84 271.204 269.023C271.204 263.531 271.204 258.039 271.204 252.547C271.204 247.055 271.204 241.564 271.204 236.072C270.668 236.072 270.132 236.072 269.596 236.072C268.523 236.072 267.808 241.38 267.45 251.998Z" fill="#ffffff" fill-rule="nonzero" opacity="1" stroke="none"/>
<path d="M295.874 253.097C295.874 258.772 295.874 264.447 295.874 270.122C296.232 270.122 296.589 270.122 296.947 270.122C297.662 270.122 298.377 269.939 299.092 269.572C299.807 269.206 300.164 263.714 300.164 253.097C300.164 242.479 299.449 236.987 298.019 236.621C297.304 236.438 296.589 236.255 295.874 236.072C295.874 241.747 295.874 247.422 295.874 253.097Z" fill="#ffffff" fill-rule="nonzero" opacity="1" stroke="none"/>
<path d="M183.788 253.097C183.61 255.843 183.431 258.589 183.252 261.335C183.967 261.335 184.682 261.335 185.397 261.335C186.112 261.335 186.827 261.335 187.542 261.335C187.006 258.589 186.47 255.843 185.934 253.097C185.397 250.351 184.861 247.605 184.325 244.859C184.146 247.605 183.967 250.351 183.788 253.097Z" fill="#ffffff" fill-rule="nonzero" opacity="1" stroke="none"/>
<path d="M95.2997 293.188C95.2997 293.92 95.2997 294.652 95.2997 295.385C143.566 295.385 191.833 295.385 240.099 295.385C288.366 295.385 336.632 295.385 384.899 295.385C384.899 294.652 384.899 293.92 384.899 293.188C384.899 292.456 384.899 291.723 384.899 290.991C336.632 290.991 288.366 290.991 240.099 290.991C191.833 290.991 143.566 290.991 95.2997 290.991C95.2997 291.723 95.2997 292.456 95.2997 293.188Z" fill="#ffffff" fill-rule="nonzero" opacity="1" stroke="none"/>
<path d="M136.594 314.057C140.527 322.112 146.427 330.35 154.292 338.771C162.158 347.192 171.096 354.331 181.107 360.19C191.118 366.048 202.38 370.441 214.893 373.37C227.407 376.299 239.921 377.215 252.434 376.116C264.948 375.018 276.567 372.272 287.293 367.878C298.019 363.485 308.388 357.077 318.398 348.656C328.409 340.235 335.56 333.096 339.85 327.238C344.141 321.38 347.537 315.888 350.04 310.762C351.291 308.199 352.543 305.636 353.794 303.073C352.9 302.89 352.006 302.707 351.112 302.524C349.325 302.158 347.716 303.806 346.286 307.467C344.856 311.128 341.995 316.071 337.705 322.295C333.415 328.519 326.622 335.659 317.326 343.714C308.03 351.769 298.377 357.993 288.366 362.386C278.355 366.78 267.272 369.709 255.116 371.173C242.96 372.638 232.412 372.638 223.474 371.173C214.536 369.709 204.525 366.414 193.442 361.288C182.358 356.162 173.599 350.853 167.163 345.361C160.728 339.869 154.65 333.279 148.929 325.59C143.209 317.902 139.633 312.227 138.203 308.565C136.773 304.904 135.164 302.89 133.377 302.524C132.483 302.341 131.589 302.158 130.695 301.975C132.662 306.002 134.628 310.03 136.594 314.057Z" fill="#ffffff" fill-rule="nonzero" opacity="1" stroke="none"/>
<path d="M122.114 317.902C124.975 324.126 128.192 329.801 131.768 334.927C135.343 340.052 140.885 346.277 148.393 353.599C155.901 360.922 165.018 367.695 175.744 373.919C186.47 380.144 197.732 384.72 209.531 387.649C221.329 390.578 234.379 391.677 248.68 390.944C262.981 390.212 273.707 388.748 280.858 386.551C288.008 384.354 295.159 381.425 302.31 377.764C309.46 374.103 317.683 368.427 326.979 360.739C336.275 353.05 343.783 345.361 349.504 337.673C355.224 329.984 359.336 323.577 361.838 318.451C364.341 313.325 365.592 310.396 365.592 309.664C365.592 309.298 365.592 308.931 365.592 308.565C364.699 308.565 363.805 308.565 362.911 308.565C361.123 308.565 359.336 310.762 357.548 315.156C355.76 319.549 352.721 324.858 348.431 331.082C344.141 337.306 339.493 342.981 334.487 348.107C329.482 353.233 323.404 358.359 316.253 363.485C309.103 368.611 299.986 373.37 288.902 377.764C277.819 382.157 265.484 384.903 251.898 386.002C238.312 387.1 225.262 386.185 212.748 383.256C200.235 380.327 189.866 376.665 181.643 372.272C173.42 367.878 164.303 360.922 154.292 351.402C144.281 341.883 137.667 334.744 134.449 329.984C131.231 325.224 128.729 320.648 126.941 316.254C125.153 311.86 123.187 309.481 121.042 309.114C119.969 308.931 118.897 308.748 117.824 308.565C119.254 311.677 120.684 314.789 122.114 317.902Z" fill="#ffffff" fill-rule="nonzero" opacity="1" stroke="none"/>
<path d="M169.845 321.197C167.342 323.76 166.269 325.59 166.627 326.689C166.806 327.238 166.984 327.787 167.163 328.336C167.878 327.97 168.593 327.604 169.308 327.238C170.739 326.506 172.705 326.506 175.208 327.238C177.71 327.97 179.319 327.97 180.034 327.238C180.749 326.506 180.928 325.224 180.571 323.394C180.213 321.563 178.962 320.098 176.817 319C174.671 317.902 172.347 318.634 169.845 321.197Z" fill="#ffffff" fill-rule="nonzero" opacity="1" stroke="none"/>
<path d="M301.773 320.098C300.701 321.197 300.164 323.027 300.164 325.59C300.164 328.153 301.058 329.984 302.846 331.082C304.634 332.181 306.421 332.547 308.209 332.181C309.996 331.815 311.248 329.984 311.963 326.689C312.678 323.394 312.499 321.197 311.427 320.098C310.354 319 308.745 318.451 306.6 318.451C304.455 318.451 302.846 319 301.773 320.098Z" fill="#ffffff" fill-rule="nonzero" opacity="1" stroke="none"/>
<path d="M180.034 330.533C177.889 333.462 176.995 335.476 177.353 336.574C177.532 337.123 177.71 337.673 177.889 338.222C178.425 338.039 178.962 337.856 179.498 337.673C180.034 337.49 180.571 337.306 181.107 337.123C181.286 338.039 181.464 338.954 181.643 339.869C181.822 340.785 182.001 341.7 182.179 342.615C182.716 342.432 183.252 342.249 183.788 342.066C184.861 341.7 185.397 340.785 185.397 339.32C185.397 337.856 186.291 336.757 188.079 336.025C189.866 335.293 190.581 334.011 190.224 332.181C189.866 330.35 188.615 328.885 186.47 327.787C184.325 326.689 182.179 327.604 180.034 330.533Z" fill="#ffffff" fill-rule="nonzero" opacity="1" stroke="none"/>
<path d="M293.729 328.336C293.014 329.069 293.014 330.167 293.729 331.631C294.086 332.364 294.444 333.096 294.801 333.828C293.371 333.828 291.941 333.828 290.511 333.828C289.081 333.828 287.651 333.828 286.221 333.828C287.472 335.659 288.723 337.49 289.975 339.32C292.477 342.981 294.265 344.629 295.338 344.263C295.874 344.08 296.41 343.897 296.947 343.714C296.589 342.798 296.232 341.883 295.874 340.968C295.516 340.052 295.159 339.137 294.801 338.222C296.232 338.405 297.662 338.588 299.092 338.771C300.522 338.954 301.952 339.137 303.382 339.32C303.203 338.588 303.025 337.856 302.846 337.123C302.488 335.659 301.058 333.645 298.555 331.082C297.304 329.801 296.053 328.519 294.801 327.238C294.444 327.604 294.086 327.97 293.729 328.336Z" fill="#ffffff" fill-rule="nonzero" opacity="1" stroke="none"/>
<path d="M191.297 337.673C190.224 338.771 189.866 340.785 190.224 343.714C190.581 346.643 192.369 348.29 195.587 348.656C198.805 349.023 200.771 348.84 201.486 348.107C202.201 347.375 202.38 345.361 202.022 342.066C201.665 338.771 200.056 336.94 197.196 336.574C194.336 336.208 192.369 336.574 191.297 337.673Z" fill="#ffffff" fill-rule="nonzero" opacity="1" stroke="none"/>
<path d="M281.394 338.222C281.037 339.686 281.573 341.7 283.003 344.263C284.433 346.826 285.684 348.29 286.757 348.656C287.293 348.84 287.83 349.023 288.366 349.206C288.545 348.473 288.723 347.741 288.902 347.009C289.26 345.544 288.723 343.531 287.293 340.968C285.863 338.405 284.612 336.94 283.539 336.574C283.003 336.391 282.467 336.208 281.93 336.025C281.752 336.757 281.573 337.49 281.394 338.222Z" fill="#ffffff" fill-rule="nonzero" opacity="1" stroke="none"/>
<path d="M194.514 340.968C193.442 342.066 193.263 343.165 193.978 344.263C194.693 345.361 195.766 345.544 197.196 344.812C197.911 344.446 198.626 344.08 199.341 343.714C198.805 342.981 198.268 342.249 197.732 341.517C197.196 340.785 196.659 340.052 196.123 339.32C195.587 339.869 195.051 340.419 194.514 340.968Z" fill="#ffffff" fill-rule="nonzero" opacity="1" stroke="none"/>
<path d="M274.959 340.419C273.886 341.151 273.35 342.615 273.35 344.812C273.35 345.911 273.35 347.009 273.35 348.107C272.635 347.375 271.92 346.643 271.204 345.911C269.774 344.446 268.165 343.897 266.378 344.263C265.484 344.446 264.59 344.629 263.696 344.812C264.411 346.826 265.126 348.84 265.842 350.853C267.272 354.881 269.238 356.711 271.741 356.345C274.243 355.979 275.674 354.698 276.031 352.501C276.21 351.402 276.389 350.304 276.567 349.206C276.925 349.938 277.282 350.67 277.64 351.402C278.355 352.867 279.249 353.416 280.321 353.05C280.858 352.867 281.394 352.684 281.93 352.501C281.037 350.304 280.143 348.107 279.249 345.911C278.355 343.714 277.461 341.517 276.567 339.32C276.031 339.686 275.495 340.052 274.959 340.419Z" fill="#ffffff" fill-rule="nonzero" opacity="1" stroke="none"/>
<path d="M206.313 343.714C205.24 344.446 204.525 345.911 204.168 348.107C203.81 350.304 204.168 352.135 205.24 353.599C206.313 355.064 208.1 355.796 210.603 355.796C213.106 355.796 214.893 354.331 215.966 351.402C217.039 348.473 216.86 346.277 215.43 344.812C214 343.348 212.391 342.615 210.603 342.615C208.815 342.615 207.385 342.981 206.313 343.714Z" fill="#ffffff" fill-rule="nonzero" opacity="1" stroke="none"/>
<path d="M219.72 352.501C219.363 354.698 219.005 356.894 218.648 359.091C219.541 358.725 220.435 358.359 221.329 357.993C222.223 357.627 223.117 357.261 224.01 356.894C224.01 357.444 224.01 357.993 224.01 358.542C224.01 359.091 224.01 359.64 224.01 360.19C224.904 360.19 225.798 360.19 226.692 360.19C227.586 360.19 228.48 360.19 229.373 360.19C229.016 359.274 228.658 358.359 228.301 357.444C227.943 356.528 227.586 355.613 227.228 354.698C227.765 354.515 228.301 354.331 228.837 354.148C229.91 353.782 230.446 352.867 230.446 351.402C230.446 349.938 229.731 348.656 228.301 347.558C226.871 346.46 225.262 345.911 223.474 345.911C221.687 345.911 220.435 348.107 219.72 352.501Z" fill="#ffffff" fill-rule="nonzero" opacity="1" stroke="none"/>
<path d="M256.724 349.755C256.546 351.036 256.367 352.318 256.188 353.599C255.294 352.501 254.401 351.402 253.507 350.304C251.719 348.107 250.11 347.192 248.68 347.558C247.25 347.924 246.892 350.304 247.607 354.698C248.323 359.091 249.395 361.288 250.825 361.288C251.54 361.288 252.255 361.288 252.97 361.288C252.97 360.739 252.97 360.19 252.97 359.64C252.97 359.091 252.97 358.542 252.97 357.993C253.864 358.359 254.758 358.725 255.652 359.091C256.546 359.457 257.44 359.823 258.333 360.19C258.333 359.457 258.333 358.725 258.333 357.993C258.333 357.261 258.333 356.528 258.333 355.796C258.512 356.345 258.691 356.894 258.87 357.444C259.227 358.542 260.121 359.091 261.551 359.091C262.266 359.091 262.981 359.091 263.696 359.091C263.339 356.894 262.981 354.698 262.624 352.501C261.909 348.107 260.836 345.911 259.406 345.911C257.976 345.911 257.082 347.192 256.724 349.755Z" fill="#ffffff" fill-rule="nonzero" opacity="1" stroke="none"/>
<path d="M208.458 349.206C208.1 350.67 208.458 351.586 209.531 351.952C210.067 352.135 210.603 352.318 211.139 352.501C210.782 351.952 210.424 351.402 210.067 350.853C209.709 350.304 209.352 349.755 208.994 349.206C209.709 349.023 210.424 348.84 211.139 348.656C211.854 348.473 212.57 348.29 213.285 348.107C212.57 347.924 211.854 347.741 211.139 347.558C210.424 347.375 209.709 347.192 208.994 347.009C208.815 347.741 208.637 348.473 208.458 349.206Z" fill="#ffffff" fill-rule="nonzero" opacity="1" stroke="none"/>
<path d="M233.664 354.698C232.949 356.894 232.234 359.091 231.519 361.288C232.412 360.922 233.306 360.556 234.2 360.19C235.988 359.457 238.312 359.457 241.172 360.19C242.602 360.556 244.032 360.922 245.462 361.288C244.747 359.091 244.032 356.894 243.317 354.698C241.887 350.304 240.278 348.107 238.49 348.107C236.703 348.107 235.094 350.304 233.664 354.698Z" fill="#ffffff" fill-rule="nonzero" opacity="1" stroke="none"/>
</g>
</svg>
